<svg width="375" height="144" viewBox="0 0 375 144" fill="none" xmlns="http://www.w3.org/2000/svg">
<g clip-path="url(#clip0_15030_13242)">
<path d="M336.766 81.0858L347.542 77.0373L352.074 65.8359L359.263 92.594L336.766 81.0858Z" fill="white"/>
<path d="M335.679 66.9216C318.34 68.4796 326.307 89.4895 317.396 82.797C308.484 76.1045 319.426 62.7314 313.489 53.0764C309.747 47.0095 293.175 49.6534 279.59 54.7878C274.432 54.0088 289.434 58.3288 289.587 58.5177C289.826 58.9187 290.036 59.3369 290.213 59.7688C290.561 60.0971 290.873 60.461 291.145 60.8547C292.396 62.4127 267.09 68.1727 267.869 70.0377C298.806 70.1911 310.833 52.7695 306.619 73.7675C302.712 92.9124 315.991 96.6422 324.737 91.8147C333.484 86.9872 323.179 73.1537 334.581 70.6632C346.774 68.0193 347.246 77.816 347.246 77.816L348.427 76.8836C348.651 77.0134 347.246 67.9957 335.679 66.9216Z" fill="white"/>
<path d="M226.613 66.5954C224.123 67.0557 221.774 67.3744 219.744 67.6813C217.713 67.9882 215.683 68.1535 213.842 68.4603L208.212 68.9325C206.347 69.0859 204.151 69.3928 201.968 69.7115C200.501 69.7889 199.04 69.9426 197.589 70.1718C196.184 70.3253 194.048 70.4787 191.18 70.9508L195.087 52.278C195.559 50.2597 195.877 48.3948 196.184 46.518C196.491 44.6413 196.963 42.6348 197.282 40.7698C197.732 39.3416 198.095 37.887 198.368 36.4144C198.84 34.703 199.159 33.1449 199.466 32.059L195.087 32.8262C195.559 29.0964 196.184 25.9803 196.656 23.5016C196.963 22.0971 197.282 21.0112 197.435 19.9607C197.631 19.0618 197.892 18.1782 198.214 17.3167C198.533 16.5377 198.687 15.9239 198.993 15.2984C199.938 15.1449 201.024 14.8262 202.593 14.5194C204.133 14.0537 205.714 13.7414 207.315 13.5869C209.038 13.2682 210.277 13.1148 211.694 12.8079C213.11 12.501 214.35 12.3357 214.975 12.1823C216.533 11.8754 218.091 11.5567 219.968 11.2498C221.817 10.7902 223.7 10.4784 225.598 10.3174C226.153 10.1549 226.734 10.1028 227.31 10.1639C228.407 10.0105 229.34 9.84526 230.284 9.69181C231.228 9.53837 232.314 9.38493 233.093 9.23149C233.628 9.14278 234.168 9.09542 234.71 9.08984V11.7338C234.808 12.9791 234.752 14.2318 234.545 15.4636C234.391 16.8682 234.391 18.4144 234.085 20.1849C233.857 21.9773 233.49 23.7492 232.987 25.4846C231.885 25.5777 230.79 25.7314 229.706 25.9449C227.994 26.0984 226.271 26.4171 224.241 26.7239C222.211 27.0308 220.487 27.3495 218.929 27.6564C217.979 27.7509 217.037 27.9086 216.108 28.1285L214.645 35.0571C216.049 34.9036 217.3 34.5849 218.398 34.4315C219.496 34.278 220.759 34.1246 221.679 33.9712C222.6 33.8177 223.71 33.6525 224.807 33.499C225.905 33.3456 226.991 33.0387 228.242 32.8735C228.328 34.5352 228.277 36.2012 228.089 37.8544C227.907 40.4617 227.592 43.0579 227.144 45.6328C226.519 45.798 225.74 45.798 224.784 46.1049C223.828 46.4118 223.06 46.5653 222.116 46.7305C221.172 46.8957 220.405 47.0374 219.46 47.1908C218.516 47.3443 218.056 47.5095 217.43 47.663C216.805 47.8164 215.719 47.9698 214.468 48.2767C213.283 48.426 212.127 48.744 211.033 49.221C210.979 50.0251 210.82 50.8187 210.561 51.5816C210.351 52.2452 210.194 52.924 210.089 53.6118C211.349 53.5436 212.604 53.3859 213.842 53.1397C215.247 52.8328 216.498 52.6794 217.749 52.3607L227.439 50.3423C227.594 51.1191 227.645 51.9127 227.593 52.703C227.726 53.8783 227.777 55.0615 227.746 56.2439C227.746 57.6367 227.746 59.1948 227.593 60.9653C227.085 62.8656 226.932 64.7305 226.613 66.5954Z" fill="white"/>
<path d="M264.739 49.6293C264.91 51.7544 264.91 53.8898 264.739 56.0149C264.585 58.9657 264.278 61.9165 263.96 65.0326C261.929 65.5047 259.746 65.8116 256.878 66.4372C254.009 67.0627 251.413 67.5231 248.285 68.1486C245.157 68.7742 242.194 69.0811 239.067 69.5414C236.171 69.9738 233.247 70.1829 230.32 70.167C230.32 70.0136 230.474 69.0811 230.792 67.5231C231.111 65.965 231.418 63.9821 231.878 61.6214C232.339 59.2608 232.976 56.6404 233.448 53.6896C233.92 50.7388 234.534 48.0831 235.16 45.1323C235.785 42.1814 236.411 39.6791 236.883 37.2005C237.355 34.7218 237.981 32.8332 238.288 31.2988C238.441 30.5198 238.76 29.2686 239.232 27.4037C239.704 25.5388 240.164 23.5204 240.636 21.5021C241.109 19.4837 241.722 17.4536 242.194 15.6004C242.667 13.7473 243.139 12.3309 243.292 11.7172C244.278 11.6333 245.269 11.6333 246.255 11.7172C247.559 11.6946 248.863 11.7458 250.162 11.8706C251.628 11.9481 253.09 12.1017 254.541 12.3309C256.099 12.4962 257.503 12.8031 258.601 12.9565C258.448 13.4286 258.129 14.3611 257.669 15.9191C257.208 17.4772 256.878 19.0234 256.252 20.8883C255.627 22.7532 255.32 24.3113 254.848 25.8693C254.375 27.4273 254.069 28.5132 253.915 28.9854C252.971 32.8686 252.192 36.7637 251.106 40.7886C250.02 44.8136 249.383 48.7205 248.745 52.5919C249.996 52.4267 251.401 52.2732 252.652 52.1198C254.021 51.9487 255.377 51.6884 256.712 51.3408C256.866 51.1873 257.338 51.1873 258.117 51.0339C259.013 50.9448 259.901 50.7869 260.773 50.5618C261.87 50.4083 262.496 50.2549 263.429 50.1014C263.835 49.871 264.278 49.7114 264.739 49.6293Z" fill="white"/>
<path d="M302.384 49.6352C302.555 51.7603 302.555 53.8956 302.384 56.0207C302.231 58.9715 301.605 59.4437 301.298 62.5479C299.268 63.0201 296.447 64.5781 293.638 65.1919C290.829 65.8057 288.916 67.5525 285.824 68.1545C282.732 68.7565 279.733 69.087 276.606 69.5473C273.711 69.9796 270.787 70.1888 267.859 70.1729C267.859 70.0194 268.013 69.087 268.332 67.5289C268.65 65.9709 268.957 63.9879 269.417 61.6273C269.878 59.2666 270.515 56.6463 270.987 53.6955C271.459 50.7447 272.073 48.0889 272.699 45.1381C273.324 42.1873 273.95 39.685 274.422 37.2063C274.894 34.7276 275.52 32.8391 275.827 31.3047C275.98 30.5257 276.299 29.2745 276.771 27.4096C277.243 25.5447 277.703 23.5263 278.175 21.5079C278.648 19.4896 279.261 17.4594 279.733 15.6063C280.206 13.7532 280.666 12.3368 280.831 11.723C281.817 11.6392 282.808 11.6392 283.794 11.723C285.098 11.7005 286.402 11.7517 287.701 11.8765C289.167 11.9539 290.629 12.1076 292.08 12.3368C293.638 12.502 295.042 12.8089 296.14 12.9624C295.987 13.4345 295.668 14.367 295.208 15.925C294.747 17.483 294.417 19.0293 293.791 20.8942C293.166 22.7591 292.859 24.3171 292.387 25.8752C291.914 27.4332 291.608 28.5191 291.454 28.9912C290.51 32.8745 289.731 36.7696 288.645 40.7945C287.559 44.8194 286.922 48.7263 286.284 52.5978C287.535 52.4325 288.94 52.2791 290.191 52.1257C291.56 51.9545 292.916 51.6943 294.252 51.3466C294.405 51.1932 294.877 51.1932 295.656 51.0397C296.552 50.9496 297.44 50.7918 298.312 50.5676C299.41 50.4142 300.035 50.2607 300.968 50.1073C301.401 49.851 301.884 49.6901 302.384 49.6352Z" fill="white"/>
<path d="M129.891 2.48633L150.676 6.84173L153.485 71.2522L133.491 66.4365L129.891 2.48633Z" fill="white"/>
<path d="M146.305 35.6373L168.495 32.8281V48.3967H147.367L146.305 35.6373Z" fill="white"/>
<path d="M170.968 4.98098L193.394 0L182.145 71.2564L165.113 70.0761L170.968 4.98098Z" fill="white"/>
<path d="M126 140.491C126.779 138.626 127.405 136.762 128.361 134.897C129.317 133.032 130.237 131.155 131.016 129.762C131.897 128.035 132.882 126.364 133.967 124.758C136.335 125.886 138.79 126.821 141.309 127.555C144.423 128.331 147.625 128.7 150.834 128.653C151.912 128.7 152.985 128.485 153.962 128.027C154.492 127.809 154.973 127.488 155.378 127.083C155.783 126.677 156.104 126.196 156.323 125.666C156.476 125.206 156.323 124.887 155.378 124.581C154.434 124.274 153.667 123.955 152.416 123.495C151.165 123.034 149.76 122.716 148.344 122.397C146.927 122.078 145.688 121.618 144.449 121.311C143.032 120.839 141.628 120.225 139.727 119.446C137.998 118.537 136.408 117.384 135.006 116.023C133.668 114.57 132.612 112.881 131.89 111.042C131.145 108.73 131.035 106.259 131.571 103.889C132.048 100.421 133.334 97.114 135.325 94.2343C137.102 91.3691 139.254 88.7533 141.722 86.456C143.155 84.9545 144.737 83.602 146.443 82.4192C148.223 81.0407 150.11 79.8054 152.085 78.7248C154.115 77.6389 155.992 76.7065 157.869 75.9274C159.487 75.1178 161.231 74.5908 163.027 74.3694C164.152 74.1078 165.308 74.0046 166.462 74.0625C167.772 74.0058 169.084 74.1089 170.369 74.3694C171.557 74.5761 172.68 75.057 173.65 75.774C174.19 76.0609 174.663 76.4582 175.039 76.9402C175.416 77.4222 175.686 77.9779 175.833 78.5714C176.804 81.536 176.967 84.7058 176.306 87.7543C176.152 88.8402 175.987 89.7727 175.68 91.2953C175.373 92.8179 175.208 93.9392 174.748 95.4973C174.287 97.0553 174.122 98.1412 173.803 99.3805C173.588 100.466 173.218 101.516 172.706 102.497C171.257 102.681 169.799 102.783 168.338 102.803H164.113C162.856 102.849 161.599 102.809 160.348 102.685C159.469 102.534 158.582 102.431 157.692 102.379C157.957 101.668 158.166 100.938 158.317 100.195C158.594 99.1751 158.803 98.1381 158.943 97.0907C159.161 95.9593 159.315 94.8165 159.403 93.6678C159.569 92.5701 159.722 91.9563 159.569 91.6376C159.415 91.3189 159.096 91.1773 157.845 91.791C156.554 92.5459 155.348 93.4362 154.245 94.4468C153.065 95.6861 151.755 96.9255 150.504 98.3301C149.56 99.3975 148.888 100.677 148.544 102.06C148.405 102.694 148.431 103.353 148.622 103.973C148.812 104.594 149.159 105.154 149.63 105.601C150.549 106.289 151.548 106.864 152.605 107.312C153.772 107.599 154.919 107.962 156.039 108.398C157.29 108.705 158.4 108.859 159.58 109.177C160.798 109.324 161.989 109.638 163.121 110.11C164.679 110.57 166.249 111.042 167.843 111.668C169.54 112.259 170.94 113.486 171.75 115.091C172.262 115.959 172.633 116.903 172.847 117.888C172.989 118.762 173.041 119.648 173.001 120.532C172.967 121.421 172.86 122.305 172.682 123.176C172.532 124.112 172.379 124.899 172.222 125.537C170.747 129.587 168.461 133.294 165.506 136.431C162.354 139.557 158.407 141.761 154.092 142.805C153.006 143.123 151.908 143.277 150.35 143.584C149 143.762 147.64 143.865 146.278 143.891C142.939 144.068 139.59 143.914 136.281 143.43C134.25 143.123 132.74 142.805 131.123 142.498C129.375 141.935 127.665 141.265 126 140.491Z" fill="white"/>
<path d="M224.897 97.0962C224.725 98.9738 224.251 100.811 223.492 102.537C222.807 104.362 221.799 106.05 220.518 107.518C217.983 110.191 215.218 112.635 212.256 114.825C209.26 116.989 206.067 118.866 202.719 120.431C200.063 121.836 197.407 122.922 194.905 123.972C194.92 124.341 194.868 124.708 194.751 125.058C194.537 125.668 194.379 126.296 194.279 126.935C194.09 128.13 193.83 129.312 193.5 130.476C193.193 131.869 192.875 134.017 192.403 136.543C192.249 137.322 192.096 137.936 191.942 138.715C191.866 139.189 191.759 139.658 191.624 140.119C188.888 140.578 186.13 140.889 183.361 141.052C180.705 141.205 178.64 141.358 177.105 141.358C177.424 139.34 177.731 136.85 178.05 134.052C178.368 131.255 178.982 128.292 179.454 125.341C179.926 122.391 180.54 119.275 181.012 116.312C181.484 113.349 182.11 110.717 182.57 108.38C182.788 107.248 182.945 106.106 183.043 104.957C183.361 103.246 183.515 101.688 183.987 99.8227C184.168 98.6652 184.428 97.5215 184.766 96.3998L181.012 96.2463C181.166 95.4673 181.331 94.3814 181.638 93.1303C181.945 91.8791 182.11 90.4863 182.57 89.0818C183.031 87.6772 183.361 86.1309 183.668 84.5729C183.975 83.0149 184.447 81.6221 184.919 80.3709C186.017 80.3709 187.575 80.2175 189.924 80.3709C192.537 80.3685 195.146 80.5777 197.726 80.9965C201.05 81.288 204.343 81.8605 207.57 82.708C211.218 83.5365 214.777 84.7225 218.193 86.249C219.099 86.5659 219.943 87.0415 220.683 87.6536C221.522 88.2 222.264 88.8821 222.879 89.6719C223.657 90.6398 224.238 91.7504 224.59 92.9414C224.952 94.2948 225.056 95.7043 224.897 97.0962ZM198.021 107.825C198.8 107.518 199.744 107.2 200.83 106.739L204.265 105.028C205.358 104.518 206.362 103.837 207.239 103.01C207.96 102.514 208.505 101.804 208.797 100.979C208.963 100.519 208.644 100.047 207.865 99.5867C207.385 99.09 206.794 98.7139 206.142 98.489C205.681 98.3355 205.056 98.1821 203.781 97.71C202.506 97.2922 201.2 96.9803 199.874 96.7775C199.874 96.7775 199.721 96.9309 199.555 97.8752C199.402 98.6424 199.248 99.4214 199.095 100.354C198.942 101.286 198.776 101.912 198.623 102.715C198.527 103.125 198.476 103.544 198.469 103.966C198.304 104.579 198.469 105.146 198.304 105.831C198.295 106.505 198.199 107.175 198.021 107.825Z" fill="white"/>
<path d="M238.026 136.139C236.468 136.45 234.891 136.659 233.305 136.765C231.582 137.071 230.177 137.071 228.584 137.39L224.37 137.85C223.319 137.849 222.271 137.956 221.242 138.169C221.4 137.772 221.457 137.342 221.407 136.918C221.561 136.292 221.714 135.525 221.868 134.9C222.021 133.814 222.34 131.937 222.812 129.446C223.284 126.956 223.898 123.698 224.523 120.275C225.149 116.852 225.775 113.111 226.554 109.381C227.333 105.651 227.97 101.909 228.584 98.6399C229.198 95.3704 229.682 92.2662 230.307 89.7757C230.933 87.2852 231.24 85.4202 231.405 84.6412C232.184 84.4878 233.282 84.4878 234.521 84.1809C235.863 83.8803 237.223 83.6713 238.593 83.5553C240.157 83.3144 241.733 83.1568 243.314 83.0832C244.915 82.833 246.535 82.7303 248.154 82.7763C248.154 82.7763 248.307 82.9298 248 83.5553C247.693 84.1809 248 84.3344 247.682 84.9481C247.363 85.5619 247.528 85.8924 247.375 86.3527C247.287 86.6038 247.235 86.8661 247.221 87.1317C246.903 88.2176 246.442 90.0826 245.97 92.4196C245.498 94.7567 244.872 97.1409 244.4 99.7376C243.928 102.334 243.468 104.872 242.842 107.197C242.217 109.523 242.063 111.246 241.744 112.497C240.812 117.313 240.34 121.515 239.714 125.256C239.089 128.998 238.652 132.409 238.026 136.139Z" fill="white"/>
<path d="M287.819 122.76C287.822 123.385 287.771 124.009 287.666 124.625C287.616 125.614 287.514 126.599 287.359 127.576C287.387 128.617 287.331 129.659 287.194 130.692C287.22 131.378 287.116 132.063 286.887 132.71C285.329 133.336 283.759 134.115 282.165 134.741C280.572 135.366 279.191 135.826 277.633 136.287C276.075 136.747 274.824 137.066 273.573 137.384C272.321 137.703 271.377 137.845 270.445 138.163C270.138 137.066 269.819 135.98 269.347 134.623C268.875 133.265 268.721 131.825 268.415 130.432C268.108 129.04 267.942 127.942 267.636 126.691C267.329 125.44 267.163 123.893 266.857 122.489C266.737 121.521 266.47 120.578 266.066 119.691C265.714 118.304 265.244 116.95 264.661 115.643C264.05 117.221 263.53 118.833 263.103 120.47C262.631 122.028 262.324 123.74 261.852 125.298C261.852 125.716 261.801 126.132 261.698 126.537C261.545 127.163 261.545 127.777 261.38 128.556C261.215 129.335 261.073 130.267 260.919 131.2C260.766 132.132 260.601 132.911 260.447 133.855C260.294 134.8 260.294 135.248 260.129 135.874C259.963 136.499 259.975 136.96 259.822 137.113C258.417 137.432 257.013 137.585 255.289 137.892C253.822 137.972 252.361 138.129 250.91 138.364C249.506 138.518 248.255 138.518 247.169 138.671C246.083 138.824 245.138 138.824 244.348 138.824C244.367 138.427 244.423 138.032 244.513 137.644L244.973 134.847C245.138 133.749 245.292 132.97 245.445 132.203C245.513 131.727 245.62 131.257 245.764 130.798C245.952 129.603 246.212 128.421 246.543 127.257C247.003 125.546 247.322 123.716 247.794 121.651C248.266 119.585 248.727 117.602 249.199 115.584C249.668 114.009 249.98 112.392 250.131 110.756C250.45 109.363 250.603 107.805 251.076 106.247C251.548 104.689 251.855 102.824 252.008 101.266C252.192 100.492 252.298 99.7012 252.327 98.9058C252.506 98.1308 252.608 97.3401 252.634 96.5451C252.648 95.9122 252.751 95.2843 252.94 94.6802C253.229 93.4477 253.438 92.1979 253.566 90.9386C253.885 89.5458 254.038 88.4481 254.192 87.3976C254.384 86.7412 254.491 86.0629 254.51 85.3792C255.608 85.0605 256.694 84.9071 258.264 84.6002L262.631 83.6677C264.201 83.3491 265.759 83.1956 267.352 82.8887C268.946 82.5818 270.48 82.4166 272.074 82.2632C272.526 83.6292 272.843 85.0367 273.018 86.4651C273.325 88.33 273.797 90.3602 274.116 92.6854C274.434 95.0107 274.895 97.0409 275.201 99.071C275.458 100.668 275.825 102.246 276.299 103.792C276.52 102.713 276.678 101.621 276.771 100.523C277.078 98.9766 277.232 97.2651 277.704 95.3884C278.011 93.9956 278.176 92.4376 278.483 90.8795C278.79 89.3215 278.955 87.9287 279.262 86.6776C279.569 85.4264 279.734 84.0336 280.053 83.1366C280.301 82.3712 280.455 81.5785 280.513 80.7759C282.236 80.4691 284.42 80.1622 287.394 79.8435C290.389 79.3622 293.415 79.1018 296.447 79.0645C296.294 79.69 295.987 80.9412 295.515 82.9595C295.22 85.0051 294.802 87.031 294.264 89.0264C293.792 91.21 293.331 93.2284 293.013 95.0933C292.694 96.9582 292.387 98.3628 292.234 98.9884C291.761 101.16 291.455 103.19 290.829 105.362C290.203 107.534 289.885 109.564 289.424 111.901C289.106 113.613 288.952 115.324 288.645 117.189C288.258 119.028 287.982 120.888 287.819 122.76Z" fill="white"/>
<path d="M91.7397 107.448C90.457 99.9181 92.8162 93.363 93.343 85.9339V85.508L92.9765 85.6873C91.6279 86.3105 90.1359 86.5774 88.6492 86.4614C87.1624 86.3454 85.7325 85.8506 84.5018 85.0262C82.7038 88.5895 79.9209 92.5338 78.1 96.4109C79.3941 100.658 77.0922 106.092 71.2286 106.092H69.3275C68.1825 106.076 67.0561 105.807 66.0331 105.303C65.01 104.8 64.1171 104.076 63.4214 103.186C62.7257 102.296 62.2454 101.263 62.0167 100.165C61.7881 99.0676 61.8169 97.9332 62.1011 96.8479C63.1318 92.2537 66.3156 88.231 68.4228 84.0402C71.3451 78.6223 73.9452 73.044 76.2104 67.333C77.848 62.8508 81.0891 62.2009 82.3259 57.4611C81.7533 45.8411 75.569 15.7883 52.1491 0C52.1491 0 63.2578 21.2902 41.132 54.6149C32.3366 63.9714 10.2108 58.7385 12.3066 90.6401C9.14572 91.0211 4.14107 86.3933 3.7975 82.5835C3.7975 82.5835 -0.210805 136.055 55.6535 136.055C74.9735 136.055 89.4378 126.34 98.4393 112.591C95.3128 112.569 92.3352 110.877 91.7397 107.448Z" fill="url(#paint0_linear_15030_13242)"/>
<path d="M79.1829 57.3681C78.6103 58.4886 73.4567 62.5785 72.678 63.6206C67.639 70.4111 71.006 72.9547 66.5281 80.0253C65.8114 85.2055 64.8136 90.3449 63.5391 95.4214L64.3064 95.3094C72.323 94.1888 80.3396 93.4941 88.2989 92.1383C92.5797 90.8032 96.96 89.7954 101.4 89.124C102.482 88.9471 103.589 88.989 104.653 89.2473C105.722 89.4942 106.725 89.9601 107.596 90.6143C112.83 67.0047 105.993 40.6497 85.2183 28.7832C86.3635 32.2793 87.4515 50.7793 79.1829 57.3681Z" fill="#C4C4C4"/>
<path d="M79.1829 57.3681C78.6103 58.4886 73.4567 62.5785 72.678 63.6206C67.639 70.4111 71.006 72.9547 66.5281 80.0253C65.8114 85.2055 64.8136 90.3449 63.5391 95.4214L64.3064 95.3094C72.323 94.1888 80.3396 93.4941 88.2989 92.1383C92.5797 90.8032 96.96 89.7954 101.4 89.124C102.482 88.9471 103.589 88.989 104.653 89.2473C105.722 89.4942 106.725 89.9601 107.596 90.6143C112.83 67.0047 105.993 40.6497 85.2183 28.7832C86.3635 32.2793 87.4515 50.7793 79.1829 57.3681Z" fill="url(#paint1_linear_15030_13242)"/>
<path d="M33.6941 41.9755C43.314 34.3447 42.9819 22.5566 42.9819 22.5566C42.9819 23.5987 24.8758 31.9243 24.4979 41.6057C24.1199 51.2872 28.8956 56.2848 28.8956 56.2848C28.8956 56.2848 24.1085 49.6064 33.6941 41.9755Z" fill="url(#paint2_linear_15030_13242)"/>
<path fill-rule="evenodd" clip-rule="evenodd" d="M89.236 75.5047C95.8669 76.5243 101.341 75.2133 102.887 47.3008C122.196 87.2255 106.93 114.768 79.4672 131.106L80.8644 133.716C81.1623 134.281 81.3414 134.898 81.3912 135.532C81.4514 136.167 81.3774 136.808 81.1736 137.414C80.9782 138.023 80.6587 138.588 80.2345 139.073C79.8115 139.555 79.2984 139.954 78.7228 140.249L77.8181 140.709C77.2336 141.002 76.5949 141.177 75.9399 141.224C75.2904 141.283 74.6355 141.211 74.0159 141.011C73.3899 140.82 72.8096 140.507 72.3095 140.092C71.837 139.673 71.4485 139.172 71.1643 138.613L69.0685 134.669C68.3585 134.826 67.6255 134.983 66.8926 135.117L67.1903 138.669C67.2449 139.305 67.171 139.944 66.9727 140.552C66.6715 141.47 66.098 142.28 65.3251 142.878C64.5522 143.477 63.6149 143.837 62.6323 143.913L61.6131 143.992C60.9642 144.047 60.3106 143.976 59.6897 143.784C59.0688 143.591 58.4926 143.281 57.9941 142.871C57.4959 142.462 57.0869 141.959 56.7917 141.392C56.4937 140.827 56.3109 140.21 56.2534 139.577L55.9671 136.103C54.8219 136.103 53.8026 136.103 52.7604 136.036L52.4627 139.577C52.3453 140.849 51.7198 142.025 50.7219 142.849C49.7186 143.667 48.4281 144.069 47.1259 143.969L46.1067 143.88C45.421 143.85 44.7497 143.678 44.1369 143.375C43.5559 143.084 43.0385 142.684 42.6137 142.199C42.1956 141.71 41.8769 141.147 41.6746 140.541C41.4773 139.937 41.4033 139.301 41.457 138.669L41.7777 134.871C40.9302 134.714 40.0942 134.534 39.2811 134.355L37.5747 137.582C36.9721 138.726 35.9298 139.588 34.6773 139.98C34.0535 140.175 33.3967 140.248 32.7443 140.194C32.0919 140.14 31.4567 139.961 30.8751 139.667L29.9475 139.218C29.3689 138.923 28.8553 138.52 28.4358 138.031C28.0118 137.549 27.6923 136.989 27.4967 136.383C27.2977 135.777 27.2235 135.138 27.2786 134.503C27.3336 133.868 27.5167 133.251 27.8173 132.686L28.7793 130.87C-0.0117457 116.897 3.6988 82.2951 3.6988 82.2951C4.06528 86.0937 13.9028 98.3412 17.0751 97.9826C16.262 85.7127 18.3577 81.8021 21.885 81.309C22.4233 80.7488 23.0303 80.1885 23.5571 79.6618C26.9928 76.3675 30.4285 73.1403 28.2296 67.2239C33.3565 72.9512 37.9159 79.1419 41.8464 85.7127C42.5632 85.5792 43.2597 85.357 43.9193 85.0516C39.9224 68.8711 54.3867 48.4886 54.3867 48.4886C58.7271 61.4083 62.1513 71.2578 66.1367 76.5916C67.5339 73.4541 70.7864 70.6191 74.0045 67.8066C78.1387 64.2097 82.1928 60.68 82.1012 56.6909C87.1746 62.3384 90.6217 68.5013 89.236 75.5047Z" fill="#C4C4C4"/>
<path fill-rule="evenodd" clip-rule="evenodd" d="M89.236 75.5047C95.8669 76.5243 101.341 75.2133 102.887 47.3008C122.196 87.2255 106.93 114.768 79.4672 131.106L80.8644 133.716C81.1623 134.281 81.3414 134.898 81.3912 135.532C81.4514 136.167 81.3774 136.808 81.1736 137.414C80.9782 138.023 80.6587 138.588 80.2345 139.073C79.8115 139.555 79.2984 139.954 78.7228 140.249L77.8181 140.709C77.2336 141.002 76.5949 141.177 75.9399 141.224C75.2904 141.283 74.6355 141.211 74.0159 141.011C73.3899 140.82 72.8096 140.507 72.3095 140.092C71.837 139.673 71.4485 139.172 71.1643 138.613L69.0685 134.669C68.3585 134.826 67.6255 134.983 66.8926 135.117L67.1903 138.669C67.2449 139.305 67.171 139.944 66.9727 140.552C66.6715 141.47 66.098 142.28 65.3251 142.878C64.5522 143.477 63.6149 143.837 62.6323 143.913L61.6131 143.992C60.9642 144.047 60.3106 143.976 59.6897 143.784C59.0688 143.591 58.4926 143.281 57.9941 142.871C57.4959 142.462 57.0869 141.959 56.7917 141.392C56.4937 140.827 56.3109 140.21 56.2534 139.577L55.9671 136.103C54.8219 136.103 53.8026 136.103 52.7604 136.036L52.4627 139.577C52.3453 140.849 51.7198 142.025 50.7219 142.849C49.7186 143.667 48.4281 144.069 47.1259 143.969L46.1067 143.88C45.421 143.85 44.7497 143.678 44.1369 143.375C43.5559 143.084 43.0385 142.684 42.6137 142.199C42.1956 141.71 41.8769 141.147 41.6746 140.541C41.4773 139.937 41.4033 139.301 41.457 138.669L41.7777 134.871C40.9302 134.714 40.0942 134.534 39.2811 134.355L37.5747 137.582C36.9721 138.726 35.9298 139.588 34.6773 139.98C34.0535 140.175 33.3967 140.248 32.7443 140.194C32.0919 140.14 31.4567 139.961 30.8751 139.667L29.9475 139.218C29.3689 138.923 28.8553 138.52 28.4358 138.031C28.0118 137.549 27.6923 136.989 27.4967 136.383C27.2977 135.777 27.2235 135.138 27.2786 134.503C27.3336 133.868 27.5167 133.251 27.8173 132.686L28.7793 130.87C-0.0117457 116.897 3.6988 82.2951 3.6988 82.2951C4.06528 86.0937 13.9028 98.3412 17.0751 97.9826C16.262 85.7127 18.3577 81.8021 21.885 81.309C22.4233 80.7488 23.0303 80.1885 23.5571 79.6618C26.9928 76.3675 30.4285 73.1403 28.2296 67.2239C33.3565 72.9512 37.9159 79.1419 41.8464 85.7127C42.5632 85.5792 43.2597 85.357 43.9193 85.0516C39.9224 68.8711 54.3867 48.4886 54.3867 48.4886C58.7271 61.4083 62.1513 71.2578 66.1367 76.5916C67.5339 73.4541 70.7864 70.6191 74.0045 67.8066C78.1387 64.2097 82.1928 60.68 82.1012 56.6909C87.1746 62.3384 90.6217 68.5013 89.236 75.5047Z" fill="url(#paint3_linear_15030_13242)"/>
<path d="M65.4582 37.8661C69.3749 30.6163 65.9736 25.2153 60.7513 20.6211C62.0111 27.3443 58.0715 34.4821 57.4187 41.3398C57.2584 43.0318 58.6784 40.2977 59.8237 37.911C59.9426 37.6129 60.1328 37.347 60.3782 37.1354C60.6236 36.9239 60.9172 36.7729 61.2344 36.695C61.5516 36.6172 61.8833 36.6147 62.2017 36.6878C62.5201 36.7609 62.816 36.9075 63.0647 37.1154C64.4046 38.4264 64.5878 39.4797 65.4582 37.8661Z" fill="#C4C4C4"/>
<path d="M65.4582 37.8661C69.3749 30.6163 65.9736 25.2153 60.7513 20.6211C62.0111 27.3443 58.0715 34.4821 57.4187 41.3398C57.2584 43.0318 58.6784 40.2977 59.8237 37.911C59.9426 37.6129 60.1328 37.347 60.3782 37.1354C60.6236 36.9239 60.9172 36.7729 61.2344 36.695C61.5516 36.6172 61.8833 36.6147 62.2017 36.6878C62.5201 36.7609 62.816 36.9075 63.0647 37.1154C64.4046 38.4264 64.5878 39.4797 65.4582 37.8661Z" fill="url(#paint4_linear_15030_13242)"/>
<g opacity="0.9">
<path opacity="0.9" d="M54.6658 110.275L31.5436 100.302C31.3715 100.226 31.181 100.199 30.9939 100.224C30.8105 100.256 30.6399 100.337 30.5015 100.459C30.3708 100.585 30.2794 100.744 30.2381 100.918C30.1811 101.093 30.1811 101.281 30.2381 101.456C34.819 113.861 42.973 116.404 54.62 111.967C54.7985 111.91 54.9546 111.801 55.0666 111.653C55.1751 111.502 55.2333 111.322 55.2333 111.138C55.2333 110.953 55.1751 110.773 55.0666 110.622C54.9714 110.47 54.8318 110.349 54.6658 110.275Z" fill="white"/>
</g>
<path d="M31.372 100.425C31.304 100.275 31.1816 100.155 31.0284 100.088L29.5625 99.4609C34.006 113.793 42.6296 116.706 55.1927 111.731C55.3192 111.682 55.4271 111.596 55.502 111.484C55.5757 111.374 55.6154 111.246 55.6165 111.115C55.6139 110.987 55.5742 110.862 55.502 110.756C55.4271 110.645 55.3192 110.559 55.1927 110.509L52.2151 109.221C52.0639 109.165 51.8969 109.165 51.7456 109.221C42.4807 111.91 35.6437 109.535 31.372 100.425Z" fill="#E93F3A"/>
<g opacity="0.9">
<path opacity="0.9" d="M60.4676 110.275L83.6241 100.303C83.7961 100.226 83.9867 100.199 84.1739 100.224C84.3546 100.254 84.5222 100.336 84.6549 100.459C84.7916 100.583 84.8875 100.745 84.9304 100.922C84.9732 101.1 84.961 101.286 84.8953 101.457C80.3144 113.861 72.1604 116.405 60.5134 111.967C60.3349 111.911 60.1788 111.801 60.0668 111.654C59.9496 111.506 59.8852 111.325 59.8835 111.138C59.8759 110.952 59.928 110.768 60.0324 110.611C60.1391 110.459 60.2909 110.341 60.4676 110.275Z" fill="white"/>
</g>
<path d="M83.7562 100.425C83.8268 100.276 83.9484 100.157 84.0998 100.088L85.5657 99.4609C81.1337 113.793 72.4986 116.706 59.9354 111.731C59.809 111.682 59.7011 111.596 59.6262 111.484C59.5525 111.374 59.5128 111.246 59.5117 111.115C59.5143 110.987 59.554 110.862 59.6262 110.756C59.7011 110.645 59.809 110.559 59.9354 110.509L62.9245 109.221C63.0718 109.165 63.2353 109.165 63.3826 109.221C72.6475 111.91 79.4845 109.535 83.7562 100.425Z" fill="#E93F3A"/>
</g>
<defs>
<linearGradient id="paint0_linear_15030_13242" x1="43.411" y1="182.143" x2="55.2887" y2="45.6609" gradientUnits="userSpaceOnUse">
<stop stop-color="#FCEF44"/>
<stop offset="0.04" stop-color="#FDE62A"/>
<stop offset="0.12" stop-color="#FDD519"/>
<stop offset="0.2" stop-color="#FCCB16"/>
<stop offset="0.28" stop-color="#FDC713"/>
<stop offset="0.67" stop-color="#F29140"/>
<stop offset="0.89" stop-color="#ED683C"/>
<stop offset="1" stop-color="#E93F3A"/>
</linearGradient>
<linearGradient id="paint1_linear_15030_13242" x1="89.719" y1="123.838" x2="83.3802" y2="44.3475" gradientUnits="userSpaceOnUse">
<stop stop-color="#FCEF44"/>
<stop offset="0.04" stop-color="#FDE62A"/>
<stop offset="0.12" stop-color="#FDD519"/>
<stop offset="0.2" stop-color="#FCCB16"/>
<stop offset="0.28" stop-color="#FDC713"/>
<stop offset="0.67" stop-color="#F29140"/>
<stop offset="0.89" stop-color="#ED683C"/>
<stop offset="1" stop-color="#E93F3A"/>
</linearGradient>
<linearGradient id="paint2_linear_15030_13242" x1="32.9726" y1="61.372" x2="33.9484" y2="22.8357" gradientUnits="userSpaceOnUse">
<stop stop-color="#FCEF44"/>
<stop offset="0.04" stop-color="#FDE62A"/>
<stop offset="0.12" stop-color="#FDD519"/>
<stop offset="0.2" stop-color="#FCCB16"/>
<stop offset="0.28" stop-color="#FDC713"/>
<stop offset="0.67" stop-color="#F29140"/>
<stop offset="0.89" stop-color="#ED683C"/>
<stop offset="1" stop-color="#E93F3A"/>
</linearGradient>
<linearGradient id="paint3_linear_15030_13242" x1="57.2497" y1="57.8226" x2="58.3571" y2="150.828" gradientUnits="userSpaceOnUse">
<stop stop-color="#FCEF44"/>
<stop offset="0.04" stop-color="#FDE62A"/>
<stop offset="0.12" stop-color="#FDD519"/>
<stop offset="0.2" stop-color="#FCCB16"/>
<stop offset="0.28" stop-color="#FDC713"/>
<stop offset="0.67" stop-color="#F29140"/>
<stop offset="0.89" stop-color="#ED683C"/>
<stop offset="1" stop-color="#E93F3A"/>
</linearGradient>
<linearGradient id="paint4_linear_15030_13242" x1="60.2474" y1="41.4855" x2="77.8768" y2="-31.2151" gradientUnits="userSpaceOnUse">
<stop stop-color="#FCEF44"/>
<stop offset="0.04" stop-color="#FDE62A"/>
<stop offset="0.12" stop-color="#FDD519"/>
<stop offset="0.2" stop-color="#FCCB16"/>
<stop offset="0.28" stop-color="#FDC713"/>
<stop offset="0.67" stop-color="#F29140"/>
<stop offset="0.89" stop-color="#ED683C"/>
<stop offset="1" stop-color="#E93F3A"/>
</linearGradient>
<clipPath id="clip0_15030_13242">
<rect width="374.4" height="144" fill="white"/>
</clipPath>
</defs>
</svg>
