<svg width="40" height="40" viewBox="0 0 40 40" fill="none" xmlns="http://www.w3.org/2000/svg">
<path d="M10.9812 36.3853C9.14522 34.299 7.30931 32.1292 6.14093 29.5422C4.97262 26.7882 4.63878 23.6171 5.22297 20.6128C5.80717 17.6085 7.14236 14.7711 9.06181 12.351C8.89494 14.4373 9.64601 16.6071 11.0647 18.1927C10.2301 14.187 11.5654 9.84742 14.2358 6.67625C16.9063 3.50508 20.5783 1.41867 24.417 0C22.4976 2.00286 22.2473 5.17403 22.9984 7.84456C23.7494 10.515 25.3351 12.8517 26.7537 15.2718C28.1724 17.6919 29.5076 20.1955 29.5911 22.9494C30.3422 21.5307 31.1767 20.112 31.6775 18.5265C32.1782 16.9408 32.4285 15.2718 32.0113 13.6862C33.5134 15.5222 34.348 17.3581 34.7652 19.6948C35.1825 22.0315 35.0991 24.4515 34.8487 26.7882C34.5149 29.3753 33.8473 32.0458 32.4286 34.2155C30.7596 36.8025 28.0891 38.6384 25.1682 39.6399C19.9941 40.5579 14.9034 39.8068 10.9812 36.3853Z" fill="#F3705A"/>
<path d="M17.3262 39.473C24.1692 42.1435 30.9289 34.0486 27.1735 27.7897C27.1735 27.7062 27.09 27.7062 27.09 27.6228C27.4239 31.0443 26.5893 33.5479 25.0037 34.9666C25.8382 32.9638 25.254 30.6271 24.2526 28.6242C23.2512 26.7048 21.8325 24.9523 20.7476 23.1164C19.6627 21.197 18.8282 19.0272 19.3289 16.8574C17.3261 18.3596 15.9074 20.6128 15.3232 23.0329C14.739 25.453 15.0729 28.1235 16.1578 30.3767C14.906 29.4588 13.988 27.9566 13.9046 26.371C12.5693 27.9566 11.7348 30.0429 11.8182 32.1292C11.8183 35.3839 14.4053 38.3047 17.3262 39.473Z" fill="#FFD15C"/>
</svg>
