<svg width="24" height="24" viewBox="0 0 24 24" fill="none" xmlns="http://www.w3.org/2000/svg">
  <rect width="24" height="24" rx="12" fill="#F5F64B"/>
  
  <g transform="rotate(180 12 12)">
    <path d="M11.1549 17.2788C11.147 17.2297 11.1433 17.18 11.1439 17.1303V8.66447L11.0581 8.84907C10.9727 9.02951 10.8564 9.19367 10.7146 9.33418L8.34062 11.7082C8.04215 12.0209 7.56201 12.0734 7.20298 11.8327C6.82039 11.5526 6.73733 11.0153 7.01747 10.6327C7.04012 10.6018 7.0648 10.5724 7.09136 10.5448L11.3843 6.25182C11.7195 5.91632 12.2631 5.91603 12.5986 6.25115C12.5988 6.25136 12.599 6.2516 12.5993 6.25182L16.8922 10.5448C17.2271 10.8806 17.2263 11.4242 16.8906 11.759C16.8641 11.7854 16.836 11.81 16.8064 11.8327C16.4474 12.0734 15.9672 12.0209 15.6687 11.7082L13.2904 9.33847C13.1643 9.2125 13.0586 9.06767 12.977 8.90917L12.8611 8.6516V17.083C12.8774 17.5216 12.571 17.9064 12.1399 17.9888C11.6718 18.0647 11.2309 17.7468 11.1549 17.2788Z" fill="#05071A"/>
  </g>
</svg>