<svg width="32" height="32" viewBox="0 0 32 32" fill="none" xmlns="http://www.w3.org/2000/svg">
<g clip-path="url(#clip0_15030_11233)">
<g clip-path="url(#clip1_15030_11233)">
<path d="M22.6357 7.94647C21.9698 7.70847 21.2298 7.50559 20.4336 7.33984C20.5321 8.19222 20.583 9.07584 20.583 9.97516C20.583 10.8745 20.5321 11.7581 20.4336 12.6105C21.2297 12.4448 21.9698 12.2419 22.6357 12.0039C24.3 11.409 25.3339 10.6317 25.3339 9.97516C25.3339 9.31872 24.3 8.54128 22.6357 7.94647Z" fill="white"/>
<path d="M28.6766 5.80867V9.01192H27.3984C27.4292 9.32948 27.4458 9.65067 27.4458 9.97517C27.4458 10.2802 27.4313 10.5823 27.4041 10.8812H30.7788V5.79492C30.432 5.87442 30.0686 5.91673 29.6943 5.91673C29.3439 5.91673 29.0034 5.87867 28.6766 5.80867Z" fill="white"/>
<path d="M24.6748 13.2207C24.294 13.4066 23.8771 13.5815 23.4237 13.7435C22.4392 14.0953 21.3192 14.379 20.1083 14.5882C19.8729 15.6649 19.554 16.6608 19.1584 17.5361C18.9761 17.9393 18.7794 18.31 18.5703 18.6486C21.3817 17.7101 23.6193 15.7205 24.6748 13.2207Z" fill="white"/>
<path d="M18.5703 1.30176C18.7794 1.64032 18.9761 2.01107 19.1584 2.4142C19.554 3.28951 19.873 4.28545 20.1083 5.36213C21.3192 5.57138 22.4393 5.85495 23.4237 6.20676C23.8772 6.36882 24.2941 6.5437 24.6748 6.72963C23.6193 4.22988 21.3817 2.24026 18.5703 1.30176Z" fill="white"/>
<path d="M11.2686 18.6486C11.0595 18.3101 10.8628 17.9393 10.6805 17.5361C10.2849 16.6608 9.96588 15.665 9.73055 14.5882C8.51966 14.379 7.39958 14.0953 6.41516 13.7435C5.96172 13.5815 5.54483 13.4066 5.16406 13.2207C6.21954 15.7205 8.45717 17.7101 11.2686 18.6486Z" fill="white"/>
<path d="M17.6782 23.3744V20.8389C16.7902 21.0171 15.8669 21.1117 14.9192 21.1117C13.9715 21.1117 13.0482 21.0171 12.1602 20.8389V23.3744H17.6782Z" fill="white"/>
<path d="M12.6354 3.11409C12.3678 3.70609 12.1395 4.36416 11.9531 5.07209C12.9118 4.98447 13.9055 4.93922 14.9169 4.93922C15.9283 4.93922 16.9221 4.98447 17.8807 5.07209C17.6943 4.36422 17.4661 3.70616 17.1985 3.11409C16.5295 1.63416 15.6553 0.714844 14.9169 0.714844C14.1786 0.714844 13.3043 1.63422 12.6354 3.11409Z" fill="white"/>
<path d="M17.1985 16.8368C17.4661 16.2448 17.6943 15.5868 17.8807 14.8789C16.9221 14.9665 15.9283 15.0118 14.9169 15.0118C13.9055 15.0118 12.9117 14.9666 11.9531 14.8789C12.1395 15.5868 12.3677 16.2448 12.6354 16.8368C13.3044 18.3168 14.1786 19.2361 14.9169 19.2361C15.6553 19.2361 16.5295 18.3167 17.1985 16.8368Z" fill="white"/>
<path d="M6.41516 6.20682C7.39958 5.85501 8.51966 5.57138 9.73055 5.3622C9.96588 4.28551 10.2849 3.28957 10.6805 2.41426C10.8628 2.01107 11.0595 1.64032 11.2686 1.30176C8.4571 2.24026 6.21954 4.22988 5.16406 6.7297C5.54483 6.54376 5.96179 6.36882 6.41516 6.20682Z" fill="white"/>
<path d="M11.5697 6.99704C11.434 7.94498 11.3633 8.94673 11.3633 9.97516C11.3633 11.0037 11.434 12.0054 11.5697 12.9534C12.6358 13.074 13.7624 13.1369 14.9191 13.1369C16.0758 13.1369 17.2024 13.074 18.2685 12.9534C18.4043 12.0054 18.475 11.0037 18.475 9.97516C18.475 8.94666 18.4043 7.94498 18.2685 6.99704C17.2024 6.87635 16.0758 6.81348 14.9191 6.81348C13.7624 6.81348 12.6358 6.87635 11.5697 6.99704Z" fill="white"/>
<path d="M9.4042 12.6107C9.30566 11.7584 9.25477 10.8747 9.25477 9.97537C9.25477 9.07606 9.30566 8.19243 9.4042 7.34006C8.60809 7.50581 7.86801 7.70868 7.20215 7.94668C5.53781 8.54149 4.50391 9.31887 4.50391 9.97537C4.50391 10.6319 5.53781 11.4092 7.20215 12.0041C7.86801 12.2421 8.60809 12.445 9.4042 12.6107Z" fill="white"/>
<path d="M24.7478 30.1307H16.0885C16.7699 29.7739 17.2274 29.1154 17.2274 28.3614C17.2274 27.2281 16.1941 26.3092 14.9194 26.3092C13.6448 26.3092 12.6114 27.2281 12.6114 28.3614C12.6114 29.1154 13.069 29.774 13.7504 30.1307H5.09099V16.8697C4.16977 15.8336 3.4514 14.6489 2.98868 13.3634V30.1307H0V32H29.8388V30.1307H26.8501V13.3633C26.3873 14.6488 25.669 15.8336 24.7478 16.8696V30.1307Z" fill="white"/>
<path d="M29.6908 4.10437C30.9655 4.10437 31.9988 3.18558 31.9988 2.05219C31.9988 0.918796 30.9655 0 29.6908 0C28.4161 0 27.3828 0.918796 27.3828 2.05219C27.3828 3.18558 28.4161 4.10437 29.6908 4.10437Z" fill="white"/>
</g>
</g>
<defs>
<clipPath id="clip0_15030_11233">
<rect width="32" height="32" fill="white"/>
</clipPath>
<clipPath id="clip1_15030_11233">
<rect width="32" height="32" fill="white"/>
</clipPath>
</defs>
</svg>
